REM DIRINDEX 1\4,1\2\5,1\2\6,1\2\7,1\3\8,1\3\9,1\3\10,1\3\11
REM DIRNAME cjc108,folder01,folder02,folder03,folder04,folder05,folder06,folder07,folder08,folder09,folder10
TITLE ""
FILE "t_j_15.mp3" MP3
  TRACK 01 AUDIO
    TITLE "8:cjc108_1964"
    INDEX 01 00:00:00
  TRACK 02 AUDIO
    TITLE "0:"
    INDEX 01 00:01:71
  TRACK 03 AUDIO
    TITLE "9:cjc108_1965"
    INDEX 01 00:03:10
  TRACK 04 AUDIO
    TITLE "0:"
    INDEX 01 00:04:07
  TRACK 05 AUDIO
    TITLE "10:cjc108_1966"
    INDEX 01 00:04:13
  TRACK 06 AUDIO
    TITLE "0:"
    INDEX 01 00:06:33
  TRACK 07 AUDIO
    TITLE "11:cjc108_1967"
    INDEX 01 00:07:07
  TRACK 08 AUDIO
    TITLE "0:"
    INDEX 01 00:11:19
  TRACK 09 AUDIO
    TITLE "9:cjc108_1968"
    INDEX 01 00:12:73
  TRACK 10 AUDIO
    TITLE "0:"
    INDEX 01 00:14:17
  TRACK 11 AUDIO
    TITLE "10:cjc108_1969"
    INDEX 01 00:14:31
  TRACK 12 AUDIO
    TITLE "0:"
    INDEX 01 00:15:58
  TRACK 13 AUDIO
    TITLE "9:cjc108_1970"
    INDEX 01 00:16:38
  TRACK 14 AUDIO
    TITLE "0:"
    INDEX 01 00:17:37
  TRACK 15 AUDIO
    TITLE "10:cjc108_1971"
    INDEX 01 00:17:41
  TRACK 16 AUDIO
    TITLE "0:"
    INDEX 01 00:18:37
  TRACK 17 AUDIO
    TITLE "9:cjc108_1972"
    INDEX 01 00:19:15
  TRACK 18 AUDIO
    TITLE "0:"
    INDEX 01 00:20:22
  TRACK 19 AUDIO
    TITLE "10:cjc108_1973"
    INDEX 01 00:20:39
  TRACK 20 AUDIO
    TITLE "0:"
    INDEX 01 00:22:30
  TRACK 21 AUDIO
    TITLE "9:cjc108_1974"
    INDEX 01 00:23:04
  TRACK 22 AUDIO
    TITLE "0:"
    INDEX 01 00:24:04
  TRACK 23 AUDIO
    TITLE "10:cjc108_1975"
    INDEX 01 00:24:06
  TRACK 24 AUDIO
    TITLE "0:"
    INDEX 01 00:25:37
  TRACK 25 AUDIO
    TITLE "11:cjc108_1976"
    INDEX 01 00:26:15
  TRACK 26 AUDIO
    TITLE "0:"
    INDEX 01 00:32:72
  TRACK 27 AUDIO
    TITLE "9:cjc108_1977"
    INDEX 01 00:34:55
  TRACK 28 AUDIO
    TITLE "0:"
    INDEX 01 00:35:70
  TRACK 29 AUDIO
    TITLE "10:cjc108_1978"
    INDEX 01 00:35:74
  TRACK 30 AUDIO
    TITLE "0:"
    INDEX 01 00:37:34
  TRACK 31 AUDIO
    TITLE "9:cjc108_1979"
    INDEX 01 00:38:16
  TRACK 32 AUDIO
    TITLE "0:"
    INDEX 01 00:39:62
  TRACK 33 AUDIO
    TITLE "10:cjc108_1980"
    INDEX 01 00:39:66
  TRACK 34 AUDIO
    TITLE "0:"
    INDEX 01 00:41:18
  TRACK 35 AUDIO
    TITLE "11:cjc108_1981"
    INDEX 01 00:41:73
  TRACK 36 AUDIO
    TITLE "0:"
    INDEX 01 00:45:51
  TRACK 37 AUDIO
    TITLE "9:cjc108_1982"
    INDEX 01 00:47:30
  TRACK 38 AUDIO
    TITLE "0:"
    INDEX 01 00:48:42
  TRACK 39 AUDIO
    TITLE "10:cjc108_1983"
    INDEX 01 00:48:61
  TRACK 40 AUDIO
    TITLE "0:"
    INDEX 01 00:50:48
  TRACK 41 AUDIO
    TITLE "9:cjc108_1984"
    INDEX 01 00:51:26
  TRACK 42 AUDIO
    TITLE "0:"
    INDEX 01 00:52:37
  TRACK 43 AUDIO
    TITLE "10:cjc108_1985"
    INDEX 01 00:52:41
  TRACK 44 AUDIO
    TITLE "0:"
    INDEX 01 00:55:28
  TRACK 45 AUDIO
    TITLE "11:cjc108_1986"
    INDEX 01 00:56:06
  TRACK 46 AUDIO
    TITLE "0:"
    INDEX 01 01:00:55
  TRACK 47 AUDIO
    TITLE "9:cjc108_1987"
    INDEX 01 01:02:38
  TRACK 48 AUDIO
    TITLE "0:"
    INDEX 01 01:03:59
  TRACK 49 AUDIO
    TITLE "10:cjc108_1988"
    INDEX 01 01:03:61
  TRACK 50 AUDIO
    TITLE "0:"
    INDEX 01 01:05:52
  TRACK 51 AUDIO
    TITLE "9:cjc108_1989"
    INDEX 01 01:06:28
  TRACK 52 AUDIO
    TITLE "0:"
    INDEX 01 01:07:37
  TRACK 53 AUDIO
    TITLE "10:cjc108_1990"
    INDEX 01 01:07:53
  TRACK 54 AUDIO
    TITLE "0:"
    INDEX 01 01:10:51
  TRACK 55 AUDIO
    TITLE "11:cjc108_1991"
    INDEX 01 01:11:25
  TRACK 56 AUDIO
    TITLE "0:"
    INDEX 01 01:16:34
  TRACK 57 AUDIO
    TITLE "9:cjc108_1992"
    INDEX 01 01:18:19
  TRACK 58 AUDIO
    TITLE "0:"
    INDEX 01 01:19:70
  TRACK 59 AUDIO
    TITLE "10:cjc108_1993"
    INDEX 01 01:20:06
  TRACK 60 AUDIO
    TITLE "0:"
    INDEX 01 01:23:18
  TRACK 61 AUDIO
    TITLE "11:cjc108_1994"
    INDEX 01 01:23:71
  TRACK 62 AUDIO
    TITLE "0:"
    INDEX 01 01:29:19
